<?xml version="1.0" encoding="utf-8"?>
<!-- Generator: Adobe Illustrator 16.0.0, SVG Export Plug-In . SVG Version: 6.00 Build 0)  -->
<!DOCTYPE svg PUBLIC "-//W3C//DTD SVG 1.1//EN" "http://www.w3.org/Graphics/SVG/1.1/DTD/svg11.dtd">
<svg version="1.1" id="Layer_1" xmlns="http://www.w3.org/2000/svg" xmlns:xlink="http://www.w3.org/1999/xlink" x="0px" y="0px"
	 width="187.2px" height="57.6px" viewBox="0 0 187.2 57.6" enable-background="new 0 0 187.2 57.6" xml:space="preserve">
<g>
	<g>
		<path fill="#FFFFFF" d="M85.93,30.3L72.113,7.465h6.305l9.678,16.561l9.121-16.561h5.777L89.758,30.3H85.93z"/>
		<path fill="#FFFFFF" d="M109.369,30.3V7.465h5.537V30.3H109.369z"/>
		<path fill="#FFFFFF" d="M125.084,30.3V7.465h24.498v4.037h-18.879v4.98h10.992v3.93h-10.992v5.617h19.172v4.272h-24.791V30.3z"/>
		<path fill="#FFFFFF" d="M179.008,11.551h-15.715v4.826h14.871c2.338,0,3.914,0.375,4.719,1.121
			c0.807,0.746,1.211,2.164,1.211,4.258v3.137c0,2.09-0.414,3.517-1.236,4.271c-0.824,0.756-2.391,1.135-4.691,1.135H163.35
			c-2.355,0-3.949-0.379-4.783-1.135c-0.836-0.756-1.254-2.182-1.254-4.271V24.26l4.957-0.924v2.688h16.795v-5.221h-14.791
			c-2.34,0-3.924-0.381-4.746-1.145c-0.824-0.766-1.24-2.186-1.24-4.258v-2.559c0-2.059,0.416-3.469,1.24-4.234
			c0.822-0.764,2.406-1.145,4.746-1.145h13.555c2.303,0,3.879,0.365,4.73,1.094c0.852,0.73,1.279,2.018,1.279,3.863v0.557
			l-4.822,1.029V11.55L179.008,11.551L179.008,11.551z"/>
	</g>
	<g>
		<path fill="#FFFFFF" d="M13.957,47.223H6.101v2.414h7.436c1.172,0,1.957,0.188,2.363,0.558c0.401,0.375,0.604,1.084,0.604,2.133
			v1.569c0,1.043-0.207,1.759-0.621,2.134c-0.413,0.381-1.194,0.567-2.348,0.567h-7.41c-1.178,0-1.977-0.19-2.391-0.567
			c-0.42-0.375-0.627-1.091-0.627-2.134v-0.315l2.479-0.46v1.338h8.396v-2.604H6.586c-1.172,0-1.961-0.191-2.373-0.574
			c-0.416-0.383-0.621-1.088-0.621-2.129v-1.281c0-1.027,0.205-1.734,0.621-2.117c0.412-0.379,1.201-0.57,2.373-0.57h6.775
			c1.154,0,1.938,0.184,2.367,0.553c0.428,0.361,0.639,1.008,0.639,1.928v0.281l-2.41,0.51V47.223z"/>
		<path fill="#FFFFFF" d="M21.313,56.598v-11.42h12.248v2.021h-9.441v2.488h5.5v1.959h-5.5v2.813h9.586V56.6H21.313V56.598z"/>
		<path fill="#FFFFFF" d="M35.984,56.598l6.777-11.42h2.676l6.883,11.42h-3.125l-1.438-2.509h-7.555l-1.438,2.509H35.984z
			 M41.391,52.01h5.234l-2.662-4.759L41.391,52.01z"/>
		<path fill="#FFFFFF" d="M55.168,56.598v-11.42h10.283c0.939,0,1.623,0.176,2.043,0.521c0.42,0.345,0.633,0.914,0.633,1.689v2.688
			c0,0.773-0.209,1.336-0.633,1.678c-0.422,0.35-1.104,0.518-2.043,0.518h-1.568l5.432,4.324H65.32l-4.784-4.324h-2.625v4.324
			h-2.742L55.168,56.598L55.168,56.598z M64.264,47.145H57.91v3.164h6.354c0.482,0,0.813-0.067,0.996-0.209
			c0.182-0.144,0.27-0.379,0.27-0.715v-1.32c0-0.334-0.092-0.567-0.27-0.709C65.08,47.217,64.746,47.145,64.264,47.145z"/>
		<path fill="#FFFFFF" d="M82.723,47.273h-7.5v7.132h7.5v-2.427l2.805,0.567v1.347c0,1.039-0.202,1.746-0.614,2.125
			c-0.418,0.383-1.205,0.574-2.377,0.574h-7.129c-1.152,0-1.937-0.188-2.349-0.566c-0.414-0.375-0.621-1.088-0.621-2.133v-6.03
			c0-1.039,0.205-1.738,0.613-2.121c0.41-0.375,1.193-0.563,2.355-0.563h7.129c1.18,0,1.973,0.188,2.379,0.563
			c0.412,0.383,0.609,1.082,0.609,2.121v1.108l-2.806,0.409v-2.106H82.723L82.723,47.273z"/>
		<path fill="#FFFFFF" d="M90.102,56.598v-11.42h2.809v4.338h8.689v-4.338h2.781v11.42H101.6v-4.812H92.91v4.812H90.102z"/>
	</g>
	<rect x="109.369" y="54.928" fill="#FFFFFF" width="74.725" height="1.5"/>
	<g>
		<path fill="#FFFFFF" d="M58.348,7.465c-6.609-0.002-11.981,5.367-11.981,11.986c0,2.619,0.85,5.043,2.282,7.021l-4.746,4.749
			l2.938,2.859l4.752-4.752c1.925,1.324,4.248,2.092,6.753,2.098c6.604-0.006,11.977-5.378,11.979-11.981
			C70.324,12.834,64.947,7.463,58.348,7.465z M58.447,27c-4.169,0-7.545-3.38-7.545-7.543c0-4.165,3.376-7.542,7.545-7.542
			c4.164,0,7.541,3.375,7.541,7.542C65.988,23.623,62.613,27,58.447,27z"/>
	</g>
	<path fill="#FFFFFF" d="M34.545,2.428l-12.84,16.848L8.574,2.428H3.328v6.273v30.845h5.246H9.34V11.86
		c0.224,0.361,0.449,0.719,0.738,1.113l10.494,13.975h1.291l10.469-13.922c0.209-0.301,0.445-0.682,0.711-1.146
		c0.199-0.354,0.435-0.807,0.687-1.309v2.506v17.216h6.012V8.696V2.423h-5.195L34.545,2.428L34.545,2.428z"/>
</g>
</svg>
