<?xml version="1.0" encoding="utf-8"?>
<!-- Generator: Adobe Illustrator 16.0.0, SVG Export Plug-In . SVG Version: 6.00 Build 0)  -->
<!DOCTYPE svg PUBLIC "-//W3C//DTD SVG 1.1//EN" "http://www.w3.org/Graphics/SVG/1.1/DTD/svg11.dtd">
<svg version="1.1" id="Layer_1" xmlns="http://www.w3.org/2000/svg" xmlns:xlink="http://www.w3.org/1999/xlink" x="0px" y="0px"
	 width="187.2px" height="54px" viewBox="0 0 187.2 54" enable-background="new 0 0 187.2 54" xml:space="preserve">
<g>
	<g>
		<path fill="#FFFFFF" d="M85.93,28.4L72.113,5.566h6.305l9.678,16.561l9.121-16.561h5.777L89.758,28.4H85.93z"/>
		<path fill="#FFFFFF" d="M109.369,28.4V5.566h5.537V28.4H109.369z"/>
		<path fill="#FFFFFF" d="M125.084,28.4V5.566h24.498v4.037h-18.879v4.98h10.992v3.93h-10.992v5.617h19.172v4.272h-24.791V28.4z"/>
		<path fill="#FFFFFF" d="M179.008,9.652h-15.715v4.826h14.871c2.338,0,3.914,0.375,4.719,1.121
			c0.807,0.746,1.211,2.164,1.211,4.258v3.137c0,2.09-0.414,3.517-1.236,4.271c-0.825,0.756-2.391,1.135-4.692,1.135h-14.817
			c-2.355,0-3.949-0.379-4.783-1.135c-0.836-0.756-1.254-2.182-1.254-4.271v-0.633l4.957-0.924v2.688h16.795v-5.221h-14.791
			c-2.34,0-3.924-0.381-4.746-1.145c-0.824-0.766-1.24-2.186-1.24-4.258v-2.559c0-2.059,0.416-3.469,1.24-4.234
			c0.822-0.764,2.406-1.145,4.746-1.145h13.555c2.303,0,3.879,0.365,4.73,1.094c0.852,0.73,1.28,2.018,1.28,3.863v0.557
			l-4.823,1.029V9.651L179.008,9.652L179.008,9.652z"/>
	</g>
	<g>
		<path fill="#FFFFFF" d="M13.957,44.102H6.1v2.414h7.436c1.172,0,1.957,0.188,2.363,0.557c0.402,0.375,0.605,1.084,0.605,2.133
			v1.57c0,1.043-0.207,1.758-0.621,2.133c-0.414,0.381-1.195,0.568-2.348,0.568h-7.41c-1.178,0-1.977-0.191-2.391-0.568
			c-0.42-0.375-0.627-1.09-0.627-2.133v-0.316L5.586,50v1.338h8.395v-2.604H6.586c-1.172,0-1.961-0.191-2.373-0.574
			c-0.416-0.383-0.621-1.088-0.621-2.129V44.75c0-1.027,0.205-1.734,0.621-2.117c0.412-0.379,1.201-0.57,2.373-0.57h6.775
			c1.154,0,1.939,0.183,2.367,0.552c0.428,0.362,0.639,1.008,0.639,1.928v0.281l-2.41,0.51V44.102z"/>
		<path fill="#FFFFFF" d="M21.312,53.477v-11.42H33.56v2.021h-9.441v2.489h5.5v1.959h-5.5v2.812h9.586v2.14H21.312L21.312,53.477z"
			/>
		<path fill="#FFFFFF" d="M35.984,53.477l6.777-11.42h2.676l6.883,11.42h-3.125l-1.438-2.509h-7.555l-1.438,2.509H35.984z
			 M41.391,48.889h5.234l-2.662-4.759L41.391,48.889z"/>
		<path fill="#FFFFFF" d="M55.168,53.477v-11.42h10.283c0.939,0,1.623,0.176,2.043,0.521s0.633,0.914,0.633,1.69v2.687
			c0,0.774-0.209,1.336-0.633,1.678c-0.422,0.349-1.104,0.517-2.043,0.517h-1.568l5.432,4.324h-3.994l-4.785-4.324h-2.625v4.324
			h-2.742L55.168,53.477L55.168,53.477z M64.264,44.023H57.91v3.164h6.354c0.482,0,0.813-0.067,0.996-0.209
			c0.182-0.143,0.27-0.379,0.27-0.715v-1.32c0-0.334-0.092-0.567-0.27-0.709C65.08,44.096,64.746,44.023,64.264,44.023z"/>
		<path fill="#FFFFFF" d="M82.723,44.152h-7.5v7.132h7.5v-2.427l2.805,0.568v1.346c0,1.039-0.203,1.746-0.615,2.125
			c-0.418,0.383-1.205,0.574-2.377,0.574h-7.129c-1.152,0-1.936-0.188-2.348-0.566c-0.414-0.375-0.621-1.088-0.621-2.133v-6.03
			c0-1.039,0.205-1.738,0.613-2.121c0.41-0.375,1.193-0.563,2.355-0.563h7.129c1.18,0,1.973,0.188,2.379,0.563
			c0.412,0.383,0.609,1.082,0.609,2.121v1.108l-2.805,0.41v-2.107H82.723L82.723,44.152z"/>
		<path fill="#FFFFFF" d="M90.101,53.477v-11.42h2.809v4.338h8.689v-4.338h2.783v11.42H101.6v-4.812H92.91v4.812H90.101z"/>
	</g>
	<rect x="109.369" y="51.807" fill="#FFFFFF" width="74.725" height="1.5"/>
	<g>
		<path fill="#FFFFFF" d="M58.348,5.566c-6.609-0.002-11.982,5.367-11.982,11.986c0,2.619,0.85,5.043,2.283,7.021l-4.746,4.749
			l2.938,2.859l4.752-4.752c1.924,1.324,4.248,2.092,6.752,2.098c6.604-0.006,11.977-5.378,11.98-11.981
			C70.324,10.935,64.947,5.564,58.348,5.566z M58.447,26.431c-4.904,0-8.875-3.977-8.875-8.875c0-4.9,3.971-8.873,8.875-8.873
			c4.9,0,8.873,3.971,8.873,8.873C67.32,22.458,63.348,26.431,58.447,26.431z"/>
	</g>
	<path fill="#FFFFFF" d="M34.545,0.529l-12.84,16.848L8.574,0.529H3.328v6.273v30.844h5.246H9.34V9.961
		c0.223,0.361,0.449,0.719,0.738,1.113l10.494,13.975h1.291l10.469-13.922c0.209-0.301,0.445-0.682,0.711-1.146
		c0.199-0.354,0.434-0.807,0.686-1.309v2.506v17.216h6.012V6.797V0.524h-5.195L34.545,0.529L34.545,0.529z"/>
</g>
</svg>
